HIERARCHY
ROOT Hips
{
	OFFSET 0.000000 0.000000 0.000000 
	CHANNELS 6 Xposition Yposition Zposition Yrotation Zrotation Xrotation 
	JOINT Lumbar
	{
		OFFSET 0.000000 0.000000 0.000000 
		CHANNELS 3 Zrotation Xrotation Yrotation
		JOINT Neck
		{
			OFFSET 0.000000 0.445665 0.000000 
			CHANNELS 3 Zrotation Xrotation Yrotation
			End Site
			{
				OFFSET 0.000000 0.227535 0.000000 
			}
		}
		JOINT RightShoulder
		{
			OFFSET 0.019635 0.377685 0.194865 
			CHANNELS 3 Zrotation Xrotation Yrotation
			JOINT RightElbow
			{
				OFFSET 0.000000 -0.243375 0.000000 
				CHANNELS 2 Zrotation Yrotation
				JOINT RightWrist
				{
					OFFSET 0.000000 -0.264825 0.000000 
					CHANNELS 2 Zrotation Xrotation
					End Site
					{
						OFFSET 0.006600 -0.176220 0.000990 
					}
				}
			}
		}
		JOINT LeftShoulder
		{
			OFFSET 0.019635 0.377685 -0.194865 
			CHANNELS 3 Zrotation Xrotation Yrotation
			JOINT LeftElbow
			{
				OFFSET 0.000000 -0.243375 0.000000 
				CHANNELS 2 Zrotation Yrotation
				JOINT LeftWrist
				{
					OFFSET 0.000000 -0.264825 0.000000 
					CHANNELS 2 Zrotation Xrotation
					End Site
					{
						OFFSET 0.006600 -0.176220 -0.000990 
					}
				}
			}
		}
	}
	JOINT RightHip
	{
		OFFSET 0.052140 -0.069960 0.075570 
		CHANNELS 3 Zrotation Xrotation Yrotation
		JOINT RightKnee
		{
			OFFSET 0.000000 -0.402270 0.000000 
			CHANNELS 1 Zrotation
			JOINT RightAnkle
			{
				OFFSET 0.000000 -0.404085 0.000000 
				CHANNELS 3 Zrotation Xrotation Yrotation
				End Site
				{
					OFFSET 0.204105 -0.089430 0.008415 
				}
			}
		}
	}
	JOINT LeftHip
	{
		OFFSET 0.052140 -0.069960 -0.075570 
		CHANNELS 3 Zrotation Xrotation Yrotation
		JOINT LeftKnee
		{
			OFFSET 0.000000 -0.402270 0.000000 
			CHANNELS 1 Zrotation
			JOINT LeftAnkle
			{
				OFFSET 0.000000 -0.404085 0.000000 
				CHANNELS 3 Zrotation Xrotation Yrotation
				End Site
				{
					OFFSET 0.204105 -0.089430 -0.008415 
				}
			}
		}
	}
}
MOTION
Frames: 14
Frame Time: 0.02
0.00096 -0.00017 -0.0003 -172.41253 -41.54067 -1.27218 47.82338 2.97309 -4.51438 7.15293 -0.96539 -0.90315 -13.02958 -10.20139 -7.50881 27.54711 88.58321 3.52324 1.46938 -28.01268 13.87899 -5.03668 44.96337 -104.34655 13.98264 -2.2868 44.54442 0.10015 -10.15951 -19.43723 -6.03121 -1.98527 -3.17633 46.16389 1.52184 6.06284 -24.77038 -6.12227 2.24453 3.29538
0.00175 -9e-05 -0.00014 -172.24212 -41.48933 -1.26705 47.88113 2.92687 -4.4913 7.34877 -0.99489 -0.90474 -12.11715 -10.21149 -6.84376 27.69866 88.69811 3.60695 1.44747 -25.90867 13.81255 -5.32872 45.12618 -103.87105 13.67386 -2.25806 44.52275 0.08011 -10.34119 -19.42189 -6.03428 -1.98801 -3.17731 46.16771 1.58018 6.28855 -24.77101 -6.12685 2.2019 3.27523
0.00254 -1e-05 1e-05 -172.07213 -41.43806 -1.26194 47.93871 2.88076 -4.46828 7.54407 -1.0243 -0.90633 -11.20684 -10.22153 -6.17997 27.85009 88.81281 3.69059 1.4256 -23.80942 13.74606 -5.62018 45.28871 -103.40284 13.36779 -2.2303 44.50113 0.06013 -10.52235 -19.40658 -6.03734 -1.99076 -3.17829 46.17152 1.63839 6.51379 -24.77164 -6.13142 2.15937 3.25512
0.00332 7e-05 0.00017 -171.90222 -41.38686 -1.25682 47.99628 2.83467 -4.44527 7.73932 -1.05372 -0.90792 -10.29709 -10.2316 -5.51684 28.00123 88.92739 3.77407 1.40376 -21.71157 13.67977 -5.91135 45.45105 -102.93021 13.06039 -2.20186 44.47952 0.04016 -10.70349 -19.39128 -6.0404 -1.99349 -3.17927 46.17533 1.69656 6.73885 -24.77227 -6.13599 2.11687 3.23503
0.00411 0.00015 0.00032 -171.73194 -41.33561 -1.25169 48.05399 2.78848 -4.4222 7.93507 -1.08321 -0.90952 -9.38553 -10.24175 -4.85277 28.15236 89.04211 3.85756 1.38187 -19.60971 13.61365 -6.20301 45.61359 -102.44684 12.74923 -2.1719 44.45787 0.02014 -10.88511 -19.37596 -6.04346 -1.99623 -3.18024 46.17916 1.75485 6.9643 -24.77291 -6.14056 2.07427 3.2149
0.0049 0.00023 0.00048 -171.56259 -41.28431 -1.24663 48.11132 2.74253 -4.3993 8.12941 -1.11244 -0.9111 -8.47796 -10.25153 -4.18964 28.30442 89.15675 3.9415 1.36005 -17.51616 13.54639 -6.49408 45.7761 -102.0098 12.45363 -2.14866 44.43631 0.00024 -11.06526 -19.36066 -6.04654 -1.99901 -3.18126 46.18293 1.81287 7.18906 -24.77352 -6.14514 2.03189 3.19484
0.00568 0.00031 0.00063 -171.39154 -41.23317 -1.24141 48.16935 2.69614 -4.37606 8.32641 -1.14218 -0.9127 -7.56322 -10.26206 -3.52531 28.45443 89.27145 4.02446 1.33812 -15.40797 13.48144 -6.78586 45.93848 -101.48346 12.12813 -2.11245 44.4146 -0.01988 -11.24824 -19.34534 -6.04957 -2.00168 -3.18219 46.18682 1.87138 7.41502 -24.77418 -6.14969 1.98913 3.17465
0.00647 0.0004 0.00079 -171.22206 -41.18187 -1.23635 48.22674 2.65016 -4.35318 8.52088 -1.17145 -0.91428 -6.65535 -10.27189 -2.86214 28.60634 89.38605 4.10828 1.31629 -13.31372 13.41449 -7.07726 46.10098 -101.03316 11.82821 -2.08725 44.39302 -0.03979 -11.42851 -19.33004 -6.05264 -2.00446 -3.18319 46.19059 1.92941 7.63973 -24.7748 -6.15427 1.94672 3.15459
0.00726 0.00048 0.00094 -171.05438 -41.13038 -1.23146 48.28336 2.60466 -4.33053 8.71266 -1.20016 -0.91585 -5.75437 -10.2809 -2.19978 28.76065 89.50079 4.19337 1.29459 -11.23354 13.34447 -7.36729 46.26375 -100.70172 11.5677 -2.07944 44.37161 -0.05948 -11.60592 -19.31474 -6.05577 -2.00735 -3.18429 46.19425 1.987 7.86361 -24.77535 -6.15891 1.90469 3.13467
0.00803 0.00056 0.0011 -170.87598 -41.07999 -1.22551 48.34444 2.55634 -4.30595 8.92114 -1.23211 -0.91751 -4.80916 -10.29473 -1.5309 28.90142 89.61553 4.27184 1.27214 -9.06337 13.29021 -7.66252 46.42535 -99.7644 11.10495 -1.9834 44.34926 -0.08055 -11.80116 -19.29939 -6.0586 -2.00955 -3.18486 46.19865 2.04759 8.09437 -24.77623 -6.16326 1.86035 3.11388
0.00884 0.00064 0.00125 -170.72047 -41.02729 -1.22183 48.39608 2.51402 -4.28584 9.09358 -1.2572 -0.91899 -3.96033 -10.2983 -0.87708 29.07054 89.72973 4.36379 1.2513 -7.08921 13.20398 -7.94842 46.58914 -100.05493 11.05302 -2.06587 44.32886 -0.09862 -11.95787 -19.28417 -6.06205 -2.01324 -3.18655 46.20143 2.10152 8.30924 -24.77645 -6.16821 1.82096 3.09497
0.00977 0.00077 0.00138 -170.62633 -40.96821 -1.22416 48.42188 2.48794 -4.2747 9.17285 -1.26367 -0.91993 -3.35373 -10.27417 -0.25437 29.31981 89.84678 4.49719 1.23466 -5.60809 13.01829 -8.19384 46.76105 -104.17418 12.27362 -2.70746 44.31424 -0.10937 -12.01579 -19.26921 -6.0672 -2.02063 -3.19116 46.20026 2.13987 8.49199 -24.77469 -6.17488 1.79481 3.08075
0.01074 0.0009 0.00151 -170.55559 -40.90686 -1.22881 48.43816 2.46795 -4.26853 9.21484 -1.26325 -0.9207 -2.84853 -10.23965 0.35091 29.59693 89.96235 4.64322 1.21969 -4.33316 12.80245 -8.43163 46.93462 -109.4482 13.88216 -3.51647 44.30154 -0.11701 -12.03401 -19.25441 -6.07297 -2.02956 -3.19689 46.19742 2.1711 8.65693 -24.77231 -6.18215 1.77372 3.06848
0.01169 0.00103 0.00165 -170.47489 -40.84652 -1.23251 48.45879 2.44524 -4.26237 9.27021 -1.26581 -0.92157 -2.31081 -10.20956 0.95813 29.86 90.07598 4.78069 1.20406 -2.99169 12.60833 -8.68397 47.10627 -113.88494 15.21536 -4.20233 44.28761 -0.12544 -12.06553 -19.23963 -6.07845 -2.03811 -3.20224 46.19501 2.20375 8.8222 -24.77029 -6.18912 1.75054 3.05559
